<svg version="1.1" id="Layer_1" xmlns="http://www.w3.org/2000/svg" xmlns:xlink="http://www.w3.org/1999/xlink" x="0px" y="0px"
	 width="100%" viewBox="0 0 1024 1024" enable-background="new 0 0 1024 1024" xml:space="preserve">
<path fill="none" opacity="1.000000" stroke="#000000" stroke-linecap="round" stroke-linejoin="round" stroke-width="13.000000"
	d="
M415.500000,268.500000 
	C412.385590,263.455566 408.311005,260.463928 401.991180,261.962860 
	C400.886658,262.224823 399.666656,262.000000 398.500000,262.000000 
	C311.833344,262.000000 225.164734,262.313538 138.501358,261.778900 
	C116.912514,261.645721 96.923645,281.452698 96.944214,303.500061 
	C97.059891,427.499939 97.000000,551.500000 97.000000,675.500000 
	C97.000000,687.666687 97.014389,699.833313 96.996864,712.000000 
	C96.965141,734.019409 115.283295,754.671814 139.500275,754.609497 
	C240.499619,754.349426 341.500000,754.528015 442.500000,754.476868 
	C463.257935,754.466370 480.135529,738.987671 483.599731,720.518677 
	C484.230896,717.153870 484.493103,713.861755 484.493713,710.500000 
	C484.502747,659.333313 484.923004,608.162354 484.397827,557.001038 
	C483.665558,485.665833 484.315125,414.333008 483.979950,343.000092 
	C483.972900,341.499359 484.217987,339.529144 483.406921,338.579498 
	C479.354370,333.834351 477.877319,327.473450 473.489594,323.010223 
	C457.213348,306.453918 440.240601,290.587769 424.482971,273.515717 
	C422.187927,271.029205 419.888153,268.373474 416.000000,268.500000 
"/>
<path fill="none" opacity="1.000000" stroke="#000000" stroke-linecap="round" stroke-linejoin="round" stroke-width="12.000000"
	d="
M728.000000,672.000000 
	C726.681824,674.336365 726.469604,676.861023 726.474548,679.500061 
	C726.518433,702.833252 726.647888,726.168030 726.432678,749.499390 
	C726.336426,759.924683 732.644531,768.234924 745.001038,768.150635 
	C797.165283,767.794800 849.334778,767.796814 901.498840,768.167358 
	C912.236023,768.243652 919.670776,760.102600 919.571350,749.999268 
	C919.345154,727.001526 919.502869,704.000000 919.495728,681.000000 
	C919.494995,678.623718 919.651917,676.259521 918.584717,673.960693 
	C918.278625,673.301331 917.529785,672.715332 917.921082,671.475098 
	C920.823730,662.274231 918.550842,652.827942 918.857239,643.495300 
	C919.075806,636.839905 912.209778,630.986755 904.999390,630.509155 
	C904.003784,630.443176 903.000000,630.500000 902.000000,630.500000 
	C849.333313,630.500000 796.666687,630.500000 744.000000,630.500000 
	C733.428162,630.500000 727.227112,635.176575 726.717896,645.510742 
	C726.293884,654.116882 725.021667,662.976318 728.000000,671.500000 
"/>
<path fill="none" opacity="1.000000" stroke="#000000" stroke-linecap="round" stroke-linejoin="round" stroke-width="12.000000"
	d="
M198.000000,424.500000 
	C198.729691,415.314209 198.621017,406.056061 204.432083,397.951294 
	C212.635452,386.509979 222.946320,379.435547 237.500015,379.439240 
	C242.345306,379.440491 247.170242,380.002625 252.079376,378.218414 
	C255.039551,377.142578 258.490143,379.600922 262.000366,379.586700 
	C297.166443,379.444031 332.334137,379.639374 367.499634,379.436523 
	C383.199463,379.345978 396.460571,390.869537 399.577545,405.984009 
	C401.093628,413.335663 400.175385,420.666901 400.453186,428.001770 
	C400.546875,430.474335 400.631195,432.927307 402.037506,434.974243 
	C404.064392,437.924469 404.058289,441.155304 404.023590,444.500244 
	C403.947510,451.832794 404.027435,459.166809 403.989990,466.499939 
	C403.966309,471.140259 404.655914,475.870026 401.549347,480.036804 
	C400.181793,481.871002 400.610840,484.282867 400.465546,486.497742 
	C400.028473,493.160706 401.211334,499.816589 399.608154,506.525848 
	C397.305603,516.162048 391.871552,523.135864 383.478485,527.962585 
	C380.329437,529.773621 377.339813,531.687927 375.000000,534.500000 
"/>
<path fill="none" opacity="1.000000" stroke="#000000" stroke-linecap="round" stroke-linejoin="round" stroke-width="12.000000"
	d="
M216.000000,538.500000 
	C219.034653,543.079346 224.420120,545.460876 227.021393,550.488953 
	C233.281616,562.589417 231.188995,574.224670 224.916000,585.453064 
	C222.790451,589.257629 220.206619,592.904053 217.007675,596.007935 
	C213.827194,599.093811 213.025909,602.482666 215.469635,606.518372 
	C218.734406,611.910095 217.504852,618.181763 218.359726,624.020569 
	C219.861847,634.280334 220.739044,644.650574 221.437622,655.004211 
	C222.253922,667.102844 236.884872,683.472351 253.500015,683.490417 
	C284.166626,683.523743 314.843079,683.959961 345.496002,683.311646 
	C361.528656,682.972534 375.349640,676.652161 381.207031,656.058899 
	C382.790771,650.490967 384.085571,645.531738 383.850433,639.486389 
	C383.377960,627.341370 384.797791,615.118225 386.408997,602.987915 
	C387.043518,598.210815 387.035980,593.301697 387.257751,588.488831 
	C387.557617,581.982056 388.847565,575.538452 388.513641,568.999329 
	C388.328156,565.366455 390.000885,562.359985 392.000000,559.500000 
"/>
<path fill="none" opacity="1.000000" stroke="#000000" stroke-linecap="round" stroke-linejoin="round" stroke-width="12.000000"
	d="
M594.000000,507.000000 
	C594.584595,510.874359 596.393616,514.126221 598.995239,517.004272 
	C607.078186,525.945862 610.529724,536.560425 610.515076,548.500000 
	C610.472534,583.166626 610.554382,617.833435 610.475403,652.499939 
	C610.439941,668.074463 621.850830,681.575623 634.002075,684.992737 
	C637.919678,686.094360 641.893250,686.796204 646.000488,686.507141 
	C657.332397,685.709595 668.659302,685.873230 680.003418,686.430725 
	C684.983154,686.675537 690.000000,686.166626 695.000000,685.999939 
"/>
<path fill="none" opacity="1.000000" stroke="#000000" stroke-linecap="round" stroke-linejoin="round" stroke-width="12.000000"
	d="
M677.500000,355.500000 
	C682.796509,350.823120 688.831787,346.645996 688.962952,338.305908 
	C685.769958,336.266968 682.324463,338.105560 678.999207,338.059753 
	C667.668030,337.903625 656.332764,337.927429 645.000122,338.017334 
	C628.718689,338.146484 616.796509,346.676270 612.428162,359.475494 
	C611.355103,362.619568 610.475891,365.660278 610.479614,369.000031 
	C610.514160,399.666626 610.384888,430.333984 610.554382,460.999695 
	C610.626282,474.012878 607.085938,485.440918 598.033875,495.031982 
	C595.069336,498.173065 592.862061,501.830078 593.500000,506.500000 
"/>
<path fill="none" opacity="1.000000" stroke="#000000" stroke-linecap="round" stroke-linejoin="round" stroke-width="12.000000"
	d="
M917.000000,672.000000 
	C915.000000,671.833313 913.000061,671.521912 911.000000,671.521057 
	C850.166687,671.495239 789.333313,671.500000 728.500000,671.500000 
"/>
<path fill="none" opacity="1.000000" stroke="#000000" stroke-linecap="round" stroke-linejoin="round" stroke-width="13.000000"
	d="
M753.500000,506.000000 
	C700.167053,506.295715 646.830383,505.385742 593.500000,506.500000 
"/>
<path fill="none" opacity="1.000000" stroke="#000000" stroke-linecap="round" stroke-linejoin="round" stroke-width="12.000000"
	d="
M829.500000,505.500000 
	C813.833313,521.333313 798.249390,537.249756 782.463928,552.963806 
	C774.937195,560.456482 773.678223,570.306580 777.531555,578.485168 
	C783.421997,590.987244 800.702393,595.520935 812.468506,583.967896 
	C827.099792,569.601624 841.594727,555.092590 855.928345,540.429993 
	C859.202454,537.080750 861.748291,536.576538 866.563904,537.734070 
	C884.617126,542.073242 901.310181,538.940491 915.519836,526.021851 
	C926.931213,515.647278 931.582642,502.622894 931.559021,487.499908 
	C931.552307,483.210938 930.270691,479.643982 927.510498,476.412262 
	C924.228638,476.924957 921.722107,478.651184 919.485962,480.986572 
	C913.861694,486.860474 908.235046,492.735260 902.477844,498.477753 
	C898.051025,502.893097 888.467407,502.761658 883.988708,498.511902 
	C879.540344,494.290833 874.868530,490.298279 870.532654,485.967285 
	C864.889771,480.330658 864.976379,471.563232 870.503967,466.003937 
	C876.486755,459.986816 882.451599,453.950409 888.525269,448.025909 
	C890.758606,445.847443 892.567017,443.489136 893.389343,440.224701 
	C886.418945,434.099030 877.925049,435.055450 869.502502,436.021729 
	C848.417053,438.440735 831.335083,454.372162 827.624207,478.519073 
	C826.367126,486.698547 828.026917,494.948181 829.979858,503.004883 
	C830.132507,503.634521 830.000000,504.333344 830.000000,505.000000 
"/>
<path fill="none" opacity="1.000000" stroke="#000000" stroke-linecap="round" stroke-linejoin="round" stroke-width="11.000000"
	d="
M197.000000,490.000000 
	C197.646225,496.523987 197.296753,503.231567 199.566452,509.475830 
	C201.866684,515.804138 205.226669,521.524719 210.975128,525.535645 
	C213.292694,527.152710 215.580444,528.957153 217.390976,531.092468 
	C218.237976,532.091370 218.822906,532.468201 219.999191,532.518860 
	C226.169052,532.784912 232.286270,533.572266 238.499954,533.575623 
	C281.666687,533.599060 324.833282,533.856445 368.000092,533.963867 
	C372.253510,533.974487 375.397064,535.296448 378.632904,538.359619 
	C384.482117,543.896667 389.606964,549.665588 392.021393,557.493408 
	C392.191162,558.043823 392.551575,558.742371 393.017303,558.963562 
	C399.803192,562.186035 400.901001,568.786255 402.467072,575.008301 
	C405.132538,585.598389 407.975555,596.145752 409.616577,606.982361 
	C410.001831,609.526489 411.323975,611.942017 413.400452,614.095947 
	C419.371857,620.290039 426.542908,625.392090 431.045319,632.973083 
	C431.365509,633.512207 432.299194,633.818787 433.005127,633.977112 
	C443.182281,636.259399 450.656006,642.889526 454.646240,651.660950 
	C458.419617,659.955566 462.437225,668.917786 458.162476,679.068420 
	C453.418335,690.333740 440.479187,693.838989 431.079529,687.874695 
	C420.742401,681.315369 412.547668,672.287170 404.136780,663.341492 
	C398.730347,657.591370 393.725098,650.347717 385.500000,647.500000 
"/>
<path fill="none" opacity="1.000000" stroke="#000000" stroke-linecap="round" stroke-linejoin="round" stroke-width="12.000000"
	d="
M830.500000,328.000000 
	C829.010681,311.367950 811.405823,299.923981 794.509644,307.022949 
	C785.423218,310.840698 777.766663,323.199738 779.025452,331.996368 
	C781.177002,347.031494 790.326050,354.141174 801.025757,355.837372 
	C813.707214,357.847687 823.803833,350.780914 828.543396,340.520050 
	C830.340515,336.629547 830.679382,332.640991 830.500000,328.500000 
"/>
<path fill="none" opacity="1.000000" stroke="#000000" stroke-linecap="round" stroke-linejoin="round" stroke-width="11.000000"
	d="
M218.500000,533.000000 
	C216.882782,537.431274 213.570740,539.051453 209.010162,539.586609 
	C200.400116,540.597107 194.405014,546.106140 188.438248,551.936829 
	C169.949966,570.003479 161.284027,592.549683 157.473694,617.495972 
	C155.927521,627.618896 154.562958,637.852661 155.697571,647.977844 
	C156.827240,658.059143 152.908646,667.325745 152.688400,677.004272 
	C152.472351,686.498901 153.372849,696.046875 159.943878,704.046082 
	C165.503815,710.814575 178.714508,715.102783 188.014236,712.043274 
	C193.501190,710.238220 195.798325,706.429260 197.168427,701.042847 
	C198.207413,696.958069 197.765808,693.570129 196.030212,689.985352 
	C194.883713,687.617371 195.700821,684.997742 195.500000,682.500000 
"/>
<path fill="none" opacity="1.000000" stroke="#000000" stroke-linecap="round" stroke-linejoin="round" stroke-width="12.000000"
	d="
M415.000000,269.000000 
	C413.091736,272.064606 412.405731,275.364777 412.450256,279.000610 
	C412.586914,290.165588 412.902802,301.352112 412.383759,312.494598 
	C411.890289,323.087402 419.023071,334.950989 434.000031,334.993256 
	C445.833282,335.026672 457.666779,334.972443 469.499908,335.019318 
	C472.471527,335.031097 474.965668,333.756805 477.500000,332.500000 
"/>
<path fill="none" opacity="1.000000" stroke="#000000" stroke-linecap="round" stroke-linejoin="round" stroke-width="13.000000"
	d="
M747.000000,341.750000 
	C740.401611,345.359650 735.062866,350.573883 729.505371,355.506012 
	C727.481689,357.301971 728.739563,359.775269 729.630371,360.896454 
	C733.871338,366.234436 736.596924,372.476898 740.368347,378.088470 
	C742.896057,381.849426 745.391174,382.303741 749.000000,380.500000 
	C750.666748,379.666931 752.490051,379.047363 753.972412,377.962280 
	C759.840210,373.667236 765.246643,372.494781 771.112732,378.387756 
	C774.029175,381.317474 778.364258,382.487427 782.492981,383.527893 
	C786.560364,384.552979 788.495789,387.206848 788.013306,391.501495 
	C787.770813,393.659637 787.950439,395.813812 787.596252,398.015472 
	C786.687805,403.662231 789.753601,406.958649 795.500061,406.991425 
	C801.999817,407.028503 808.500488,407.049561 814.999817,406.984039 
	C820.043945,406.933228 822.416504,404.998718 821.880005,400.012909 
	C820.838440,390.334290 822.643188,383.318787 833.978821,381.838043 
	C837.036133,381.438721 839.474792,378.573761 842.067383,376.587952 
	C844.510498,374.716614 847.295471,374.289459 850.555847,375.886017 
	C855.176697,378.148743 859.722656,380.835663 864.994568,381.540649 
	C865.038330,381.546539 865.000000,382.166656 865.000000,382.500000 
"/>
<path fill="none" opacity="1.000000" stroke="#000000" stroke-linecap="round" stroke-linejoin="round" stroke-width="12.000000"
	d="
M197.500000,424.500000 
	C195.166672,425.000000 192.850784,425.612488 190.496567,425.977905 
	C184.539597,426.902588 179.603104,432.044098 179.537155,438.000397 
	C179.409836,449.498993 179.330032,461.003296 179.552780,472.498962 
	C179.737061,482.009705 186.455872,488.716522 196.000000,489.500061 
	C198.848511,489.733887 206.440994,482.792877 207.502151,479.000610 
	C208.471481,475.536469 208.298492,472.082214 208.126648,468.493927 
	C207.728500,460.179657 207.727036,451.821838 208.077499,443.503265 
	C208.421570,435.336243 205.746552,429.071594 198.500000,425.000000 
"/>
<path fill="none" opacity="1.000000" stroke="#000000" stroke-linecap="round" stroke-linejoin="round" stroke-width="13.000000"
	d="
M592.500000,506.000000 
	C568.333923,505.746704 544.160583,506.546570 520.000000,505.500000 
"/>
<path fill="none" opacity="1.000000" stroke="#000000" stroke-linecap="round" stroke-linejoin="round" stroke-width="12.000000"
	d="
M865.000000,342.000000 
	C864.812195,335.490906 867.522400,328.862640 865.370178,322.544220 
	C862.491943,314.094513 867.161133,310.003998 872.913940,305.392639 
	C882.686951,297.558868 882.994690,298.853271 875.458069,288.029205 
	C872.548340,283.850281 869.071167,280.070862 866.033752,275.974945 
	C864.024109,273.265015 862.053101,272.923859 858.950256,274.395081 
	C855.376709,276.089508 852.249573,278.352173 848.932861,280.390778 
	C846.365112,281.969025 843.630066,283.148590 840.369934,280.140961 
	C836.463928,276.537476 831.153198,274.923920 825.992676,273.527100 
	C822.783020,272.658325 821.862793,270.535461 821.977234,267.499146 
	C822.083862,264.669830 822.002686,261.833344 821.999512,259.000000 
	C821.991638,252.011520 820.769470,250.385574 813.996826,250.067993 
	C807.344727,249.756088 800.663391,249.874390 794.001221,250.047668 
	C790.081604,250.149628 787.727173,252.794708 787.531189,257.001465 
	C787.376282,260.327576 787.232727,263.693787 787.567810,266.993103 
	C787.984802,271.099304 785.666443,273.835236 782.470764,274.298126 
	C776.689087,275.135620 772.162964,278.131866 767.541077,281.064697 
	C764.978821,282.690613 762.931091,282.857727 760.474548,281.034271 
	C757.583069,278.888062 754.554749,276.910828 751.484436,275.025360 
	C748.480042,273.180328 745.460205,272.325684 742.995117,275.996704 
	C738.846191,282.175293 734.737854,288.383331 730.459656,294.471649 
	C729.045227,296.484589 729.064331,298.626221 730.570984,299.917175 
	C735.923401,304.503418 741.051575,309.391724 747.000000,313.250000 
"/>
<path fill="none" opacity="1.000000" stroke="#000000" stroke-linecap="round" stroke-linejoin="round" stroke-width="12.000000"
	d="
M343.750000,491.500000 
	C344.554382,493.866150 343.713104,495.281738 341.525970,496.544983 
	C324.275757,506.508392 307.310089,506.338898 290.465546,495.553802 
	C289.242676,494.770844 289.638092,493.911438 289.500000,493.000000 
"/>
<path fill="none" opacity="1.000000" stroke="#000000" stroke-linecap="round" stroke-linejoin="round" stroke-width="12.000000"
	d="
M213.500000,603.500000 
	C205.045212,605.969238 200.090118,613.932922 199.362869,623.990112 
	C198.711273,633.001282 198.578537,641.989380 198.455643,650.999390 
	C198.432846,652.670288 197.833328,654.333313 197.500000,656.000000 
"/>
<path fill="none" opacity="1.000000" stroke="#000000" stroke-linecap="round" stroke-linejoin="round" stroke-width="12.000000"
	d="
M253.500000,309.500000 
	C245.353180,308.384521 236.920914,315.299255 235.600784,324.015259 
	C234.100266,333.922119 240.419296,340.726837 247.961746,344.085907 
	C255.657440,347.513184 261.003937,343.214844 265.883148,338.868805 
	C271.121674,334.202759 272.629395,327.713074 269.926483,321.029724 
	C267.098022,314.036011 262.115387,309.462646 254.000000,309.500000 
"/>
<path fill="none" opacity="1.000000" stroke="#000000" stroke-linecap="round" stroke-linejoin="round" stroke-width="12.000000"
	d="
M157.500000,657.000000 
	C164.812042,658.103699 172.169662,657.432739 179.499939,657.426941 
	C184.997742,657.422546 190.620651,658.483154 195.987549,656.466858 
	C198.057526,655.689209 199.374832,657.003113 200.449371,658.051880 
	C208.555206,665.962952 213.120621,675.384094 212.548935,687.002380 
	C212.377014,690.496155 209.905182,691.678345 207.484116,692.970215 
	C204.705490,694.452942 201.632996,694.931763 198.500000,695.000000 
"/>
<path fill="none" opacity="1.000000" stroke="#000000" stroke-linecap="round" stroke-linejoin="round" stroke-width="13.000000"
	d="
M253.500015,346.500000 
	C253.333344,356.833344 253.166672,367.166656 253.000015,377.500000 
"/>
<path fill="none" opacity="1.000000" stroke="#000000" stroke-linecap="round" stroke-linejoin="round" stroke-width="12.000000"
	d="
M430.500000,634.000000 
	C422.384125,643.844788 413.531738,653.005676 404.500000,662.000000 
"/>
<path fill="none" opacity="1.000000" stroke="#000000" stroke-linecap="round" stroke-linejoin="round" stroke-width="12.000000"
	d="
M745.500000,313.500000 
	C743.957458,321.638580 742.195251,329.755066 744.944580,338.018433 
	C745.343994,339.218903 745.000000,340.666656 745.000000,342.000000 
"/>
<path fill="none" opacity="1.000000" stroke="#000000" stroke-linecap="round" stroke-linejoin="round" stroke-width="12.000000"
	d="
M736.500000,486.750000 
	C738.927246,487.050690 741.260925,487.289062 743.055725,489.453796 
	C744.621521,491.342285 746.506592,493.065796 748.528687,494.458344 
	C755.931458,499.556335 755.376648,512.365967 748.999390,517.499268 
	C747.336792,518.837585 745.713684,520.231262 743.989685,521.485840 
	C740.895935,523.737305 739.064453,526.491577 740.000000,530.500000 
"/>
<path fill="none" opacity="1.000000" stroke="#000000" stroke-linecap="round" stroke-linejoin="round" stroke-width="12.000000"
	d="
M881.500000,357.000000 
	C876.770447,364.125732 872.987793,371.858856 867.562927,378.551025 
	C866.760742,379.540588 865.991211,380.476837 865.000000,381.250000 
"/>
<path fill="none" opacity="1.000000" stroke="#000000" stroke-linecap="round" stroke-linejoin="round" stroke-width="12.000000"
	d="
M672.500000,670.500000 
	C680.595093,669.946106 684.327393,675.949951 687.286072,681.611816 
	C689.968506,686.745056 687.629333,692.140564 683.957458,696.463867 
	C681.945496,698.832703 679.500000,700.833313 677.250000,703.000000 
"/>
<path fill="none" opacity="1.000000" stroke="#000000" stroke-linecap="round" stroke-linejoin="round" stroke-width="8.000000"
	d="
M358.250031,448.000000 
	C358.166687,455.666656 358.083374,463.333344 358.000031,471.000000 
"/>
<path fill="none" opacity="1.000000" stroke="#000000" stroke-linecap="round" stroke-linejoin="round" stroke-width="8.000000"
	d="
M277.000000,455.000000 
	C277.000000,460.333344 277.000000,465.666656 277.000000,471.000000 
"/>
</svg>