<svg version="1.1" id="Layer_1" xmlns="http://www.w3.org/2000/svg" xmlns:xlink="http://www.w3.org/1999/xlink" x="0px" y="0px"
	 width="100%" viewBox="0 0 1024 1024" enable-background="new 0 0 1024 1024" xml:space="preserve">
<path fill="#000000" opacity="1.000000" stroke="none" 
	d="
M680.571899,662.672607 
	C693.789062,643.980225 711.461853,634.714844 734.084656,635.725403 
	C739.270325,635.957092 741.313599,634.282593 743.217834,629.317993 
	C754.393494,600.181091 775.502991,583.270386 806.762695,579.571655 
	C851.456055,574.283386 888.493896,605.122681 895.253113,646.542908 
	C895.916443,650.607361 898.969971,649.947754 901.184875,650.447876 
	C911.375183,652.749023 920.390564,657.166565 927.464478,664.889771 
	C942.062134,680.827454 945.547974,699.451599 938.797546,719.619690 
	C932.093323,739.649719 917.105835,750.449524 896.719849,754.341736 
	C890.444763,755.539795 884.115906,755.237610 877.797607,755.258484 
	C858.298218,755.322876 838.790100,754.996765 819.301208,755.471130 
	C795.016846,756.062195 770.749817,757.262939 746.516785,759.130249 
	C733.080322,760.165710 719.598694,760.617859 706.137207,761.327942 
	C685.057922,762.439819 664.025696,764.108521 643.006165,766.076355 
	C625.299500,767.734070 607.644348,769.660400 590.034363,772.162231 
	C564.204895,775.831909 538.545898,780.401428 513.030212,785.801758 
	C452.427979,798.628174 394.288330,819.054321 337.190399,842.723267 
	C333.564819,844.226135 332.051239,846.185608 332.246643,850.171387 
	C332.556396,856.489258 332.413727,862.835510 332.284424,869.166077 
	C332.219971,872.321472 333.359100,873.796448 336.640045,873.661743 
	C339.966919,873.525208 343.311584,873.533264 346.636536,873.706482 
	C351.660675,873.968262 354.874817,877.214417 355.343140,882.228699 
	C356.848297,898.343933 344.170624,912.342468 327.939911,912.354553 
	C281.774200,912.388916 235.608459,912.396790 189.442780,912.363831 
	C173.630997,912.352600 160.991165,899.082581 161.662445,883.363770 
	C161.906998,877.637573 165.333664,874.059326 170.968567,873.663025 
	C171.632431,873.616333 172.301392,873.642090 172.967987,873.634338 
	C184.855835,873.495239 184.865692,873.495300 184.868744,861.783997 
	C184.875107,837.451172 184.868942,813.118408 184.869812,788.785583 
	C184.870331,774.553711 190.647247,768.717163 204.831024,768.710449 
	C240.996948,768.693420 277.162872,768.690735 313.328796,768.708008 
	C326.422974,768.714294 332.300049,774.579285 332.312439,787.560730 
	C332.322968,798.560486 332.292664,809.560364 332.341339,820.559875 
	C332.349274,822.340271 331.873596,824.221130 333.275757,826.396240 
	C450.141785,776.781921 572.438049,751.965210 699.772461,747.879883 
	C691.634766,742.825623 684.743225,736.759155 679.722473,728.800049 
	C679.058105,727.746948 677.872131,727.485840 676.651611,727.413574 
	C665.355164,726.744507 654.066833,725.777039 642.761108,725.488831 
	C636.586914,725.331421 630.497620,724.426880 624.339844,724.251831 
	C620.960571,724.155823 618.376709,722.341431 616.700684,719.357849 
	C613.897949,714.368408 616.430420,709.485596 622.120239,709.755249 
	C633.904968,710.313965 645.678284,711.218445 657.433838,712.238892 
	C662.229858,712.655212 666.966919,712.783752 672.212585,712.489929 
	C671.472778,706.073486 670.311768,700.048828 670.541992,693.906189 
	C670.650696,691.004944 668.120850,690.692871 665.951965,690.366943 
	C652.499329,688.345337 639.060974,686.216736 625.584045,684.371216 
	C603.385254,681.331482 581.163452,678.459290 558.945190,675.563660 
	C553.344788,674.833801 547.712402,674.348938 542.113220,673.610840 
	C540.393250,673.384094 539.238586,674.116333 538.068604,675.084167 
	C534.732178,677.844177 531.488647,680.725647 528.046936,683.347168 
	C521.072510,688.659363 511.493225,687.923706 507.658905,680.245667 
	C502.066956,669.048096 493.026459,667.131897 482.032135,666.264893 
	C447.825165,663.567261 413.574768,662.735779 379.295685,661.790039 
	C366.083771,661.425537 354.414032,662.407593 344.256287,671.452881 
	C342.197174,673.286499 339.400543,674.291870 336.928375,675.687866 
	C337.143951,678.241211 339.083679,679.528137 340.334503,681.199341 
	C345.211060,687.714783 348.739624,694.784668 349.314270,703.028870 
	C349.463196,705.165955 350.300018,706.105347 352.275177,706.986267 
	C355.959137,708.629395 358.964569,711.443604 358.017090,715.879639 
	C357.004150,720.622192 353.280731,722.364258 348.606995,722.355225 
	C331.107452,722.321228 313.607819,722.327881 296.108215,722.311218 
	C285.733643,722.301331 279.390350,717.852295 276.878998,707.793091 
	C274.429626,697.982056 272.541687,688.018555 270.739807,678.061829 
	C268.938354,668.107239 269.109161,668.009766 259.364624,669.471069 
	C211.321548,676.675537 163.751099,686.010986 117.440247,701.021179 
	C112.196182,702.720825 108.414619,701.318054 106.954163,697.399414 
	C105.150856,692.560852 107.185295,688.200073 112.604042,686.503296 
	C140.206528,677.859558 168.029541,669.988647 196.496811,664.716431 
	C215.418243,661.212219 234.436417,658.228088 253.419876,655.062744 
	C257.489227,654.384216 261.595764,653.928589 266.088043,653.315308 
	C265.043579,642.982666 270.752167,637.559814 279.168793,633.648376 
	C287.168274,629.930847 294.776764,625.421265 302.421722,620.990906 
	C313.774384,614.412048 320.672363,604.692200 325.854889,592.769104 
	C330.529877,582.013550 330.926544,574.275940 321.114410,565.474854 
	C311.037903,556.436584 307.257721,543.103088 305.606781,529.518311 
	C303.691406,513.757629 301.438202,498.038025 299.214813,481.427826 
	C291.419128,486.683441 282.144043,488.938354 281.168365,500.137909 
	C280.683655,505.701813 278.992462,511.225586 277.308380,516.598694 
	C276.051727,520.608032 277.014740,523.398804 279.631500,526.507812 
	C287.176178,535.471680 291.355042,545.673645 290.402344,557.725220 
	C289.529297,568.769226 282.038239,576.241577 271.055573,576.324280 
	C268.958008,576.340088 267.130371,576.482117 265.776672,578.370605 
	C259.248077,587.478149 249.817169,590.105957 239.366409,589.247498 
	C222.704956,587.878723 209.682144,580.347168 206.046677,562.377014 
	C203.991364,552.217651 204.580856,541.856262 209.357880,532.680786 
	C212.771988,526.123108 213.057449,519.469910 213.631073,512.623535 
	C214.934189,497.070557 217.055862,481.618225 219.220200,466.170013 
	C220.707214,455.556366 225.510315,446.760559 233.112549,439.191284 
	C246.112137,426.248077 259.839722,414.104095 273.492645,401.883667 
	C280.986633,395.175995 289.792542,390.538086 299.805115,388.348755 
	C296.907257,385.297913 294.289917,382.559998 291.691742,379.803986 
	C281.928833,369.447845 276.270599,357.421265 276.650116,342.920288 
	C276.714905,340.445068 277.030884,337.980743 273.665741,336.941010 
	C262.112579,333.371521 255.860550,324.744873 255.129791,313.355255 
	C254.173615,298.452637 253.533554,283.401794 255.631012,268.494080 
	C257.059387,258.341888 263.014282,251.486282 272.624023,248.181442 
	C275.781921,247.095428 276.608734,245.554825 276.721832,242.469498 
	C277.839813,211.972382 303.323639,192.664139 327.125061,189.615952 
	C333.436523,188.807648 339.743286,188.601242 346.064636,188.785568 
	C349.529755,188.886597 350.799194,187.625168 350.718903,184.143631 
	C350.542114,176.481262 350.515015,168.807327 350.742676,161.147507 
	C350.841400,157.825211 349.615204,156.126740 346.694122,154.620132 
	C333.093292,147.605331 326.603088,132.917953 330.646362,118.951180 
	C334.172119,106.772057 345.568970,97.855453 357.868347,97.653366 
	C372.266418,97.416801 383.651672,105.195213 387.720795,118.048508 
	C391.859924,131.123016 387.967987,145.448715 376.345154,151.731750 
	C368.245911,156.110016 366.296661,161.404297 367.263092,169.524216 
	C367.752075,173.632599 367.343750,177.847214 367.349548,182.013794 
	C367.358887,188.719986 367.361847,188.735825 374.311249,188.737152 
	C399.810699,188.742020 425.310181,188.735641 450.809631,188.733063 
	C461.476074,188.731979 472.142975,188.792389 482.808868,188.715973 
	C512.140137,188.505814 532.863647,209.748322 534.469177,234.683441 
	C534.564941,236.170303 535.198730,237.654510 535.120300,239.115143 
	C534.767273,245.685135 534.819031,251.549606 542.125854,255.285385 
	C546.125366,257.330200 547.370300,262.328400 547.358704,267.107483 
	C547.322083,282.273743 547.359741,297.440216 547.339905,312.606537 
	C547.330444,319.843567 544.562378,325.639374 537.911560,328.937317 
	C535.410767,330.177368 535.149109,331.975037 535.232422,334.220612 
	C535.492432,341.231567 535.189392,348.242859 533.892456,355.114899 
	C531.184326,369.463348 523.083740,380.299011 511.212341,388.497955 
	C509.979797,389.349274 508.725708,390.169647 507.501251,391.032257 
	C507.238068,391.217651 507.059967,391.523773 506.419861,392.261719 
	C510.822083,396.589905 513.046509,402.567200 519.779297,405.363678 
	C529.327515,409.329498 536.936462,416.748047 545.540955,422.443451 
	C547.594666,423.802795 549.380920,425.629272 552.470459,426.364288 
	C557.240662,418.929108 562.065979,411.395264 566.907166,403.871643 
	C568.012573,402.153748 566.938721,400.682465 566.455566,399.136108 
	C563.147278,388.548920 561.261658,377.839996 563.657227,366.758179 
	C564.441101,363.131775 565.836670,359.752106 568.016479,356.764282 
	C573.653259,349.038086 581.421143,347.247681 589.917175,351.615540 
	C591.093628,352.220367 592.263184,352.838623 594.351562,353.928528 
	C596.847473,348.059906 599.312439,342.359161 601.693787,336.623718 
	C602.843506,333.854431 603.919678,331.087494 605.780029,328.663269 
	C616.264343,315.000824 630.044128,319.348511 637.032471,330.355255 
	C638.766785,333.086761 640.008545,335.107269 643.866150,334.558746 
	C654.411072,333.059357 661.838074,339.511200 662.296204,350.355042 
	C662.406372,352.963684 663.025146,354.520203 665.636353,355.698639 
	C678.177124,361.358276 682.169678,374.867584 673.924683,385.898621 
	C666.160828,396.286041 657.339111,405.879211 649.070740,415.894409 
	C643.511780,422.627686 637.350464,428.659271 629.803223,433.133026 
	C627.388611,434.564331 626.040649,436.827301 624.519287,439.007874 
	C613.183350,455.256317 602.874634,472.204346 590.471497,487.730835 
	C576.384460,505.365234 558.336914,508.714600 537.579529,503.549866 
	C528.333862,501.249390 519.813843,497.159302 510.829529,492.284241 
	C509.608643,500.547821 508.368805,508.160095 507.382080,515.804993 
	C505.973145,526.721313 504.338837,537.557190 498.979187,547.405457 
	C498.219299,548.801758 497.550171,549.968872 499.050812,551.368042 
	C513.915161,565.226929 522.934937,583.280029 533.855896,599.969360 
	C535.207275,602.034607 536.556702,604.101135 538.060059,606.401062 
	C541.386353,604.555359 544.329651,602.731323 547.431580,601.236511 
	C557.108582,596.573364 567.205750,595.224670 577.439636,598.885132 
	C586.437256,602.103394 592.865967,608.037537 594.376587,618.045044 
	C595.494446,625.450806 592.124756,630.821838 586.571899,635.320007 
	C578.031494,642.238342 569.619446,649.315247 561.164734,656.339111 
	C559.890503,657.397644 558.679993,658.532959 557.186584,659.857605 
	C560.935486,662.688843 565.334961,661.865112 569.184448,662.340088 
	C602.785645,666.486816 636.347534,670.876404 669.746704,676.447693 
	C672.296265,676.872925 673.731567,675.918457 674.814392,673.572632 
	C676.483887,669.955872 678.506897,666.502197 680.571899,662.672607 
M393.500000,379.963318 
	C424.155823,379.883057 454.814697,380.030670 485.466187,379.624207 
	C500.296387,379.427582 513.425842,368.280090 516.632935,353.924377 
	C517.783936,348.772003 518.526123,343.413086 518.553772,338.143707 
	C518.726196,305.319275 519.098694,272.484863 518.480896,239.671158 
	C518.082275,218.494598 502.766022,205.811707 484.976898,206.168427 
	C474.318115,206.382141 463.650116,206.097488 452.986359,206.109436 
	C412.496918,206.154755 372.005219,205.995804 331.519012,206.389709 
	C310.494080,206.594254 292.828125,225.516983 293.320648,246.139801 
	C293.375702,248.444534 293.756378,250.220596 295.905884,251.623886 
	C304.026428,256.925262 307.195404,264.910980 307.309875,274.229645 
	C307.459290,286.391541 307.387299,298.556793 307.335022,310.720276 
	C307.295471,319.927063 303.873016,327.557190 296.436646,333.195404 
	C294.969879,334.307495 293.632263,335.280518 293.316376,337.411499 
	C290.145386,358.803802 306.873169,379.210114 328.522827,379.629852 
	C349.842682,380.043243 371.173828,379.876923 393.500000,379.963318 
M346.238037,567.249756 
	C354.805817,573.771545 363.974945,579.010742 374.793243,580.811035 
	C395.807434,584.308228 417.101227,584.830811 438.275452,586.447388 
	C452.448334,587.529419 464.037201,592.396545 472.793274,603.596497 
	C476.072845,607.791443 479.142853,612.152832 482.240631,616.486755 
	C487.635437,624.034363 492.977661,631.619507 498.728546,639.734436 
	C507.350616,632.555420 515.529846,625.790588 523.647766,618.952942 
	C525.601562,617.307251 524.269836,615.574768 523.307739,614.059875 
	C514.739868,600.569275 506.842194,586.640442 497.489532,573.664124 
	C489.296387,562.296570 478.921906,554.318665 464.289825,552.936584 
	C460.299500,552.559570 456.310394,552.715149 452.354614,552.244568 
	C447.513702,551.668579 444.382782,547.944641 444.713013,543.388672 
	C445.014679,539.227051 448.165802,536.401428 452.956482,536.454285 
	C461.098541,536.544128 469.243378,536.712585 477.162354,539.072815 
	C484.325653,541.207825 484.442657,541.095764 487.106476,533.947571 
	C487.395905,533.170837 487.603821,532.362793 487.831299,531.564087 
	C492.308502,515.843872 493.045898,499.513336 495.530334,483.473114 
	C498.271271,465.777283 500.039124,447.933075 502.512115,430.192719 
	C504.742676,414.191681 496.744720,400.818329 482.195099,397.840820 
	C477.205566,396.819733 471.919952,397.048981 466.769226,397.042725 
	C422.364136,396.988831 377.958984,397.011749 333.298950,397.011749 
	C334.412262,398.205994 335.397339,399.291351 336.412659,400.347534 
	C350.654999,415.162720 350.289246,443.374939 333.255768,457.198669 
	C328.459320,461.091278 323.567596,464.813019 318.363586,468.114105 
	C315.901642,469.675812 314.594330,471.281891 315.184204,474.574554 
	C316.234619,480.437775 316.610962,486.418915 317.368866,492.337952 
	C319.054321,505.501434 320.453064,518.714600 322.615204,531.800659 
	C325.084076,546.742798 334.008057,557.757019 346.238037,567.249756 
M860.499939,739.639099 
	C872.286255,739.142578 884.142395,740.787292 895.870422,738.633362 
	C918.595703,734.459656 932.461609,710.347290 924.372864,688.743774 
	C918.736694,673.690857 907.608887,665.594543 891.578491,664.366394 
	C883.733948,663.765503 881.156128,661.203369 880.652222,653.149048 
	C880.600281,652.319702 880.566589,651.483215 880.428406,650.666260 
	C874.316711,614.525940 844.251343,592.138794 812.615906,594.288086 
	C795.804810,595.430176 781.795776,601.909485 770.392944,614.129333 
	C762.490173,622.598450 757.586731,632.658020 755.004211,643.946289 
	C753.480042,650.608765 751.087769,652.018677 744.424866,651.478027 
	C737.825867,650.942566 731.315125,650.254395 724.571167,651.224121 
	C699.005127,654.900269 680.675354,681.481506 686.856873,706.547974 
	C691.758423,726.424194 708.436096,739.578064 729.054260,739.606628 
	C772.536072,739.666931 816.018005,739.633240 860.499939,739.639099 
M200.335800,802.502319 
	C200.338440,822.153503 200.416245,841.805176 200.278275,861.455322 
	C200.251694,865.238953 201.213699,866.741211 205.316742,866.724976 
	C240.788177,866.584351 276.260468,866.606873 311.732208,866.699463 
	C315.365479,866.708984 316.742493,865.552368 316.725433,861.820496 
	C316.615143,837.673401 316.598053,813.525208 316.745605,789.378479 
	C316.770538,785.297302 315.151855,784.246704 311.405609,784.320618 
	C302.416290,784.497986 293.420990,784.372559 284.428101,784.372620 
	C258.282074,784.372681 232.135544,784.457642 205.990570,784.293762 
	C201.623001,784.266418 199.935684,785.622253 200.276489,790.017517 
	C200.571701,793.824951 200.337128,797.673340 200.335800,802.502319 
M313.486267,451.911835 
	C316.195770,449.981079 319.049530,448.221802 321.587219,446.086823 
	C328.638428,440.154755 331.478729,432.314545 330.178009,423.388123 
	C328.777802,413.779175 323.111694,407.471893 313.478760,405.066223 
	C303.166504,402.490936 294.222168,405.871155 286.652130,412.393036 
	C273.166565,424.011353 260.167999,436.193939 246.926895,448.097321 
	C239.667206,454.623627 235.668243,462.786407 234.461182,472.387054 
	C232.826981,485.384918 231.262085,498.391541 229.587967,511.384155 
	C229.255234,513.966492 230.551971,514.530762 232.703110,514.694824 
	C240.487122,515.288696 248.266785,515.942871 256.044189,516.619080 
	C259.435944,516.914062 261.176941,515.621338 261.868042,512.091797 
	C263.173859,505.422913 265.135162,498.882812 266.456299,492.216339 
	C267.981873,484.518219 272.214355,479.122406 278.774994,474.941345 
	C290.280304,467.609009 301.527100,459.871033 313.486267,451.911835 
M375.712128,617.253052 
	C378.531464,611.351929 382.197083,605.797729 383.832062,598.689148 
	C369.619110,597.715332 356.949219,593.612976 344.945312,586.384399 
	C343.953949,589.077576 343.141693,591.223877 342.371979,593.385376 
	C338.093750,605.399780 332.938843,616.887512 323.178131,625.641663 
	C313.521332,634.302673 302.135406,640.181519 290.685120,645.987488 
	C279.639587,651.588135 281.479004,649.338013 283.399628,659.899963 
	C285.892151,673.606812 288.664368,687.264709 291.505096,700.904358 
	C291.995483,703.259094 291.876984,706.623840 295.792450,706.613037 
	C306.784363,706.582642 317.783752,706.757141 328.764709,706.388855 
	C333.785034,706.220398 334.758728,704.239746 332.777527,699.368774 
	C328.963989,689.992798 323.252075,683.042358 311.842255,683.246338 
	C307.677063,683.320862 304.472137,681.208557 303.739502,676.683350 
	C303.014069,672.202698 305.814178,670.537842 309.561951,669.445312 
	C312.424530,668.610657 315.129181,667.249756 317.944702,666.235779 
	C343.043091,657.197021 362.776337,641.790405 375.712128,617.253052 
M561.317444,442.821045 
	C556.648560,447.949341 553.802124,448.316040 548.473145,444.488220 
	C544.691162,441.771667 540.939819,439.010437 537.108521,436.365021 
	C531.150757,432.251434 525.530701,427.617645 518.702148,423.915741 
	C517.702271,440.290924 515.664429,456.035309 513.389893,471.752533 
	C513.097046,473.776031 513.882385,475.278748 515.768311,476.241364 
	C524.640198,480.769836 533.235413,485.785400 543.087585,488.238098 
	C557.678955,491.870667 569.593811,488.542572 578.910034,476.388275 
	C584.180786,469.511902 589.048279,462.374481 593.861877,455.186981 
	C598.361816,448.467743 602.891479,441.768372 607.615356,434.752350 
	C597.542175,428.455933 588.042297,422.517883 578.208557,416.371094 
	C572.457520,425.416534 567.110596,433.826477 561.317444,442.821045 
M398.516449,606.880920 
	C393.155792,620.689575 385.827179,633.414734 376.952576,645.887024 
	C413.477448,646.171082 449.652008,647.472778 486.211578,652.087585 
	C485.653625,650.280701 485.617371,649.741943 485.351868,649.364441 
	C476.921906,637.379333 468.616547,625.302429 459.963898,613.479675 
	C455.059021,606.777832 448.016693,603.786804 439.728668,603.255920 
	C429.282043,602.586731 418.824158,601.851074 408.437164,600.597046 
	C403.382690,599.986755 399.918365,600.655457 398.516449,606.880920 
M628.523071,370.053436 
	C625.162109,374.341522 620.559509,375.703522 616.885193,373.497314 
	C613.235840,371.306091 612.650269,367.371002 615.226074,361.980499 
	C616.087280,360.178131 617.044495,358.420929 617.982300,356.656067 
	C620.407471,352.092621 622.654663,347.447906 624.225281,342.512207 
	C624.979431,340.142303 624.135681,338.110443 622.102844,336.935913 
	C620.094482,335.775513 618.777283,337.542847 618.264160,339.003418 
	C613.843872,351.586853 605.208191,362.708893 605.230591,376.849609 
	C605.236877,380.854492 602.818298,383.434509 598.960144,384.167206 
	C595.095337,384.901215 592.055054,383.332550 590.451660,379.636963 
	C589.529907,377.512543 589.086365,375.176910 588.127075,373.073364 
	C586.792114,370.146240 585.888672,366.747894 582.392456,365.683685 
	C580.517090,366.463013 580.021667,367.929688 579.525452,369.321899 
	C576.473816,377.885223 579.012085,397.979309 590.752380,405.211456 
	C596.988953,409.053192 603.061584,413.160217 609.274414,417.041504 
	C616.899109,421.804840 619.960449,421.890656 626.718750,415.971680 
	C639.554382,404.730164 649.301575,390.679901 660.343689,377.810852 
	C662.036316,375.838196 662.805115,373.106354 660.485840,370.649933 
	C657.835876,371.185913 656.324707,373.017914 654.795532,374.726776 
	C651.909912,377.951508 649.259827,381.394226 646.278625,384.524170 
	C643.047668,387.916199 638.111389,388.479401 634.989014,386.011017 
	C631.171387,382.992889 631.211487,379.214203 633.298462,375.283203 
	C634.305969,373.385345 635.643005,371.655701 636.895752,369.896149 
	C639.694275,365.965485 642.682312,362.160187 645.301575,358.114990 
	C646.927979,355.603058 647.997192,352.745483 644.939941,349.297302 
	C637.726257,354.699402 633.574341,362.269440 628.523071,370.053436 
M304.500122,886.391846 
	C262.190338,886.391846 219.880554,886.391846 177.246124,886.391846 
	C179.252243,894.007507 183.617279,896.807373 192.075363,896.813477 
	C222.550903,896.835266 253.026489,896.831726 283.502045,896.824646 
	C298.156677,896.821289 312.812286,896.882874 327.465485,896.727905 
	C334.341980,896.655273 338.743713,892.997437 339.941406,886.392578 
	C328.385071,886.392578 316.942627,886.392578 304.500122,886.391846 
M274.612457,554.933899 
	C274.467224,547.163818 270.488647,541.061523 266.006866,535.182434 
	C265.159180,534.070557 264.053711,533.461609 262.607452,533.366272 
	C252.491531,532.700073 242.371552,532.077209 232.267715,531.257385 
	C229.092041,530.999695 227.298096,532.368530 225.932434,534.984009 
	C222.372467,541.801941 220.709457,549.072083 221.477676,556.678833 
	C222.682388,568.607361 237.259155,576.657227 248.330856,571.754272 
	C251.730499,570.248718 254.176208,567.960144 254.722168,564.076111 
	C255.021545,561.946106 255.482422,559.829956 255.638245,557.690613 
	C255.956635,553.319519 257.950226,550.397156 262.433075,549.752014 
	C266.516663,549.164307 270.039886,551.900879 271.240021,556.242920 
	C271.549927,557.364197 270.994141,558.812683 272.538971,559.861633 
	C273.281036,558.317139 273.919098,556.989136 274.612457,554.933899 
M510.068390,655.539673 
	C512.224487,658.703552 514.554199,661.765198 516.491699,665.057617 
	C518.797791,668.976318 521.052429,668.897400 524.367554,666.094666 
	C541.148621,651.907410 558.074036,637.890991 574.910217,623.768738 
	C578.713684,620.578308 578.447144,617.811768 574.163574,615.366882 
	C571.989197,614.125854 569.605957,613.477844 567.043518,613.340393 
	C558.888916,612.902710 552.077698,616.105286 546.089111,621.198914 
	C534.552490,631.011475 523.154419,640.987000 511.703491,650.900208 
	C510.476105,651.962769 508.807953,652.829834 510.068390,655.539673 
M290.651306,277.743683 
	C290.650879,277.244324 290.657806,276.744812 290.648834,276.245605 
	C290.516235,268.871552 287.094299,264.516357 281.337769,264.391937 
	C275.489075,264.265533 272.073303,268.415161 272.045410,275.990204 
	C272.003723,287.308563 272.005768,298.628571 272.160370,309.945587 
	C272.256866,317.009277 275.515442,320.686859 281.195129,320.648468 
	C287.146118,320.608246 290.600342,316.653595 290.635498,309.646881 
	C290.687256,299.326965 290.650177,289.006592 290.651306,277.743683 
M371.362671,123.478287 
	C370.846283,122.436081 370.422089,121.334801 369.798279,120.361450 
	C366.293213,114.892311 358.873016,113.128784 353.155853,116.360229 
	C347.585754,119.508553 345.320129,126.914955 348.097290,132.896896 
	C350.810944,138.742004 358.198608,141.797318 364.001801,139.474533 
	C369.720001,137.185776 372.017700,132.552948 371.362671,123.478287 
z"/>
<path fill="#000000" opacity="1.000000" stroke="none" 
	d="
M179.188110,754.392273 
	C163.570648,759.236206 148.373276,764.072693 133.122467,768.734314 
	C126.593491,770.729980 121.483551,766.192139 122.758728,759.794800 
	C123.539597,755.877319 126.741425,754.796997 129.926987,753.665710 
	C150.299377,746.431213 170.986313,740.217285 191.907333,734.801147 
	C209.262253,730.308228 226.735092,726.312317 244.382767,723.106567 
	C250.441971,722.005859 254.380249,723.963196 255.247772,728.766846 
	C256.310059,734.649048 254.415588,737.029114 247.435577,738.303162 
	C224.544754,742.481262 201.950867,747.908997 179.188110,754.392273 
z"/>
<path fill="#000000" opacity="1.000000" stroke="none" 
	d="
M406.247314,703.672852 
	C423.974274,703.099976 441.231354,702.502136 458.491394,702.008484 
	C460.446777,701.952576 462.507050,702.206726 464.364746,702.799500 
	C468.120667,703.997803 470.236664,706.884888 469.826355,710.741821 
	C469.386414,714.877441 466.605377,717.158447 462.338074,717.313904 
	C452.547424,717.670654 442.758057,718.175293 432.964142,718.296936 
	C424.155212,718.406433 415.360779,718.577454 406.570404,719.210815 
	C402.145935,719.529663 398.736298,717.839417 397.417938,713.253235 
	C395.745270,707.434570 398.671539,704.116394 406.247314,703.672852 
z"/>
<path fill="#000000" opacity="1.000000" stroke="none" 
	d="
M578.321777,718.509216 
	C576.775818,720.100525 575.183777,720.353699 573.468079,720.378540 
	C555.194031,720.643127 536.982788,719.248352 518.758606,718.256714 
	C514.966980,718.050415 512.327393,715.708435 510.792572,712.285645 
	C508.784882,707.808472 511.272400,703.615051 516.190552,703.716125 
	C526.306885,703.923950 536.451111,704.102783 546.515015,705.036194 
	C552.500122,705.591309 558.448608,705.446167 564.410522,705.667664 
	C567.237061,705.772766 570.034424,705.883179 572.813904,706.525330 
	C579.475159,708.064148 581.313965,711.700500 578.321777,718.509216 
z"/>
<path fill="#000000" opacity="1.000000" stroke="none" 
	d="
M467.027344,268.817749 
	C476.543457,263.318237 485.652344,265.152344 491.955261,273.559875 
	C498.738373,282.607910 498.346222,296.464691 491.065674,304.994415 
	C482.194580,315.387695 469.355530,314.613556 461.698822,303.223755 
	C454.364014,292.312775 456.446960,278.115143 467.027344,268.817749 
z"/>
<path fill="#000000" opacity="1.000000" stroke="none" 
	d="
M380.886292,265.646790 
	C390.690704,266.534302 395.830811,272.499115 398.576691,280.727448 
	C401.933197,290.785736 399.491669,299.783691 392.007690,307.195007 
	C387.166321,311.989349 381.312866,313.676514 374.615326,311.307251 
	C365.027924,307.915680 359.050537,296.459808 360.766907,284.685974 
	C362.353333,273.803680 370.509216,265.912415 380.886292,265.646790 
z"/>
<path fill="#000000" opacity="1.000000" stroke="none" 
	d="
M400.909912,350.238220 
	C397.579956,348.242950 394.863464,346.050049 392.393127,343.558197 
	C389.118195,340.254761 388.705353,336.551453 391.276703,332.710785 
	C393.531860,329.342499 398.593262,328.345581 402.483643,330.563599 
	C404.777924,331.871674 406.726959,333.771759 408.970856,335.183838 
	C423.512848,344.335236 439.536987,343.138519 453.874481,331.712250 
	C457.276215,329.001251 460.622620,328.310760 464.415344,330.498535 
	C467.904694,332.511261 468.859283,335.679626 468.335663,339.470795 
	C467.934509,342.374817 465.912506,344.100677 463.777954,345.745178 
	C446.490784,359.063751 422.522766,363.281311 400.909912,350.238220 
z"/>
</svg>