<svg version="1.1" id="Layer_1" xmlns="http://www.w3.org/2000/svg" xmlns:xlink="http://www.w3.org/1999/xlink" x="0px" y="0px"
	 width="100%" viewBox="0 0 1024 1024" enable-background="new 0 0 1024 1024" xml:space="preserve">
<path fill="none" opacity="1.000000" stroke="#000000" stroke-linecap="round" stroke-linejoin="round" stroke-width="13.000000"
	d="
M486.500000,587.500000 
	C485.036285,584.836731 484.980103,581.948486 484.980804,579.000000 
	C485.003937,480.833344 484.828308,382.666138 485.132812,284.500397 
	C485.200470,262.678955 470.790314,242.135986 450.541412,235.375961 
	C443.766968,233.114349 436.887634,232.122620 429.999817,232.110657 
	C335.500092,231.946533 240.999863,231.911804 146.500076,232.055099 
	C119.052040,232.096725 97.918686,248.339890 93.027855,277.504669 
	C92.810379,278.801544 93.000000,280.166656 93.000000,281.500000 
	C93.000000,415.500000 92.937859,549.500061 93.057877,683.499939 
	C93.079224,707.333130 109.573540,727.419373 132.496552,732.515503 
	C137.119049,733.543152 141.744492,734.044556 146.500031,734.041809 
	C241.833313,733.985901 337.166809,734.089661 432.499878,733.929993 
	C453.421661,733.894897 469.568329,724.990234 479.538940,706.020447 
	C480.582550,704.034851 482.166656,702.333313 483.500000,700.500000 
"/>
<path fill="none" opacity="1.000000" stroke="#000000" stroke-linecap="round" stroke-linejoin="round" stroke-width="13.000000"
	d="
M877.000000,302.250000 
	C877.257141,293.501709 876.597595,284.748138 877.423279,275.992767 
	C877.770508,272.310760 879.236389,269.007477 880.124939,265.531952 
	C881.378967,260.626984 882.947205,255.940842 880.515503,250.992386 
	C879.473083,248.871185 880.427490,246.661026 880.406067,244.500931 
	C880.282104,232.001022 881.274109,219.473267 879.965637,207.003601 
	C878.467102,192.722794 869.107605,184.528030 854.500000,184.510361 
	C825.500000,184.475296 796.500000,184.500000 767.500000,184.500000 
	C746.333313,184.500000 725.162964,184.742523 704.001282,184.417938 
	C688.954895,184.187134 677.970642,196.584442 677.983093,210.500015 
	C678.026672,259.333313 677.988770,308.166656 678.006104,357.000000 
	C678.012146,374.003479 690.590393,383.097260 704.000122,383.029694 
	C725.832886,382.919678 747.666687,383.013275 769.500000,382.981171 
	C771.901550,382.977631 774.275757,383.029144 776.488098,384.026428 
	C777.485291,384.475983 778.275513,385.202820 779.511169,384.520264 
	C783.617126,382.252197 788.127991,383.033325 792.500061,383.022766 
	C813.499939,382.972076 834.500000,382.996307 855.500000,383.004669 
	C858.107056,383.005707 860.722595,383.113068 863.000000,381.500000 
"/>
<path fill="none" opacity="1.000000" stroke="#000000" stroke-linecap="round" stroke-linejoin="round" stroke-width="14.000000"
	d="
M778.500000,650.000000 
	C778.500000,678.500000 778.375488,707.000732 778.542847,735.499756 
	C778.658813,755.246338 765.775574,772.133301 746.984253,776.431213 
	C743.427429,777.244690 739.667053,777.452454 735.999939,777.456970 
	C684.333313,777.520325 632.666687,777.526611 581.000000,777.487244 
	C559.618774,777.470947 543.500000,763.482971 540.311646,742.951599 
	C538.437561,730.883423 539.666687,718.333313 539.500000,706.000000 
"/>
<path fill="none" opacity="1.000000" stroke="#000000" stroke-linecap="round" stroke-linejoin="round" stroke-width="13.000000"
	d="
M877.000000,566.500000 
	C877.000000,563.833313 877.185669,561.151428 876.968079,558.502625 
	C875.992981,546.634216 878.204224,535.229980 881.748352,523.999451 
	C882.010132,523.169922 882.722900,522.073730 882.429321,521.538818 
	C877.812866,513.128357 881.263245,504.158875 880.605225,495.492004 
	C879.899292,486.195374 880.958740,476.825134 880.019470,467.498047 
	C879.002869,457.402618 869.226196,447.466705 858.997559,447.061768 
	C834.838501,446.105408 810.666687,446.123779 786.499939,446.997711 
	C786.000549,447.015778 785.485291,447.078705 785.002136,446.988525 
	C771.861877,444.535828 758.673645,447.197235 745.494568,446.625122 
	C732.352661,446.054657 719.166077,446.422119 706.000183,446.523376 
	C694.372314,446.612762 684.949585,450.726685 680.062561,462.027039 
	C678.584412,465.444977 677.954712,469.154999 677.959534,473.000061 
	C678.020813,522.333313 678.191101,571.667908 677.880371,620.999268 
	C677.790405,635.292664 688.004272,647.697144 704.500427,647.548096 
	C726.165344,647.352234 747.833313,647.511353 769.500000,647.483948 
	C771.898499,647.480896 774.259460,647.536987 776.497498,648.505798 
	C777.180481,648.801514 777.933411,649.575806 778.485535,649.440796 
	C796.529602,645.026123 814.844604,648.546082 833.003845,647.572021 
	C840.980896,647.144165 849.045227,648.015381 856.984131,647.319031 
	C862.284729,646.854126 866.224121,647.665527 869.570801,651.944641 
	C871.438538,654.332581 874.436951,655.009644 877.500000,655.007629 
	C898.833313,654.993225 920.167297,654.904968 941.499695,655.042969 
	C951.128906,655.105225 957.747192,645.970520 957.617920,638.497986 
	C957.271973,618.503967 957.502502,598.500000 957.498535,578.500000 
	C957.497070,571.122864 956.243347,570.098328 949.035583,568.353027 
	C945.496948,567.496155 942.463928,567.186157 938.952942,568.359192 
	C936.703979,569.110535 933.848999,569.032043 931.535400,568.375305 
	C928.065979,567.390442 924.866638,568.176025 921.493408,568.274536 
	C913.184631,568.517151 904.760742,569.535522 896.502808,567.488586 
	C893.517273,566.748474 890.938599,568.550415 888.005859,568.658813 
	C882.319092,568.869080 876.879700,566.433167 870.935791,568.294983 
	C865.735168,569.924011 864.017334,570.767578 864.010071,576.500000 
	C863.984131,596.833313 863.976074,617.166748 864.027100,637.499939 
	C864.034363,640.396851 863.795654,643.221069 863.000000,646.000000 
"/>
<path fill="none" opacity="1.000000" stroke="#000000" stroke-linecap="round" stroke-linejoin="round" stroke-width="13.000000"
	d="
M190.500000,394.500000 
	C190.825745,385.606049 191.811844,376.751953 196.569962,369.043182 
	C203.948181,357.089539 214.657944,350.433380 228.998093,349.943970 
	C234.340546,349.761627 239.664673,350.674042 245.103561,348.800659 
	C247.396088,348.011017 250.858292,350.051575 254.000092,350.045197 
	C289.166595,349.973633 324.333344,350.009247 359.500000,349.995758 
	C375.050201,349.989807 389.682495,362.975677 392.102600,377.983459 
	C392.913635,383.013031 392.960968,387.983765 392.985504,393.000061 
	C393.013306,398.687958 392.604584,404.363434 395.892914,409.567657 
	C396.768341,410.953156 396.462250,413.165619 396.477112,415.000183 
	C396.533783,421.999725 396.384705,429.002533 396.538025,435.999176 
	C396.651855,441.193512 396.580963,446.306915 393.981689,450.989838 
	C392.825165,453.073486 392.979858,455.288788 393.011078,457.499847 
	C393.100983,463.857544 393.605988,470.357727 391.871185,476.463409 
	C389.425995,485.069275 385.137939,492.680145 377.036346,497.560333 
	C374.329742,499.190765 371.554932,500.995056 370.000000,504.000000 
"/>
<path fill="none" opacity="1.000000" stroke="#000000" stroke-linecap="round" stroke-linejoin="round" stroke-width="12.000000"
	d="
M206.500000,576.000000 
	C210.042252,581.146912 209.645569,587.230713 210.476379,593.003418 
	C212.057846,603.991699 213.081573,615.077393 215.098557,625.981750 
	C218.086288,642.134216 231.514420,653.875427 249.500183,653.961060 
	C279.499512,654.103943 309.500488,654.102600 339.499817,653.963074 
	C358.719116,653.873657 372.343750,639.712769 374.650604,622.520203 
	C375.556335,615.769775 374.865936,608.558411 379.291443,602.351318 
	C380.360840,600.851440 379.041626,597.450439 378.460846,595.009338 
	C376.725586,587.715454 378.556519,580.652222 379.431030,573.491577 
	C379.956360,569.190002 380.097443,564.786011 380.271942,560.490723 
	C380.706573,549.794373 382.540405,539.203064 382.423035,528.500854 
	C382.394928,525.937561 383.767029,523.890564 384.000000,521.500000 
"/>
<path fill="none" opacity="1.000000" stroke="#000000" stroke-linecap="round" stroke-linejoin="round" stroke-width="12.000000"
	d="
M945.000000,302.500000 
	C946.612488,304.047821 948.631958,303.379150 950.500427,303.493286 
	C954.542664,303.740295 957.447754,306.405731 957.462769,310.500122 
	C957.542053,332.166504 957.631104,353.834564 957.431824,375.499359 
	C957.358032,383.528961 950.085999,390.418945 941.999817,390.461761 
	C920.667053,390.574738 899.332458,390.392914 878.000488,390.562592 
	C871.236816,390.616364 868.067810,385.279541 863.541626,381.943512 
	C863.223267,381.708832 863.470703,380.665192 863.504211,380.000214 
	C864.637451,357.507141 863.707886,334.999176 863.987244,312.499847 
	C864.078125,305.181427 865.341614,304.552887 872.457703,303.266144 
	C877.101685,302.426422 881.148193,304.546661 885.498657,303.989471 
	C896.502747,302.580078 907.549133,305.083160 918.481018,303.834076 
	C924.752319,303.117554 930.833679,303.988922 936.999817,304.028351 
	C939.638245,304.045197 942.142090,303.710449 944.500000,302.500000 
"/>
<path fill="none" opacity="1.000000" stroke="#000000" stroke-linecap="round" stroke-linejoin="round" stroke-width="12.000000"
	d="
M581.500000,585.000000 
	C583.338440,586.686646 585.809937,586.753845 588.009644,587.470337 
	C597.978577,590.717468 603.344482,598.968811 603.425415,608.000671 
	C603.643433,632.332031 603.743835,656.670044 603.407104,680.998718 
	C603.209900,695.247620 589.883728,704.171631 579.993042,703.626648 
	C569.690979,703.058899 559.332886,703.549500 549.000305,703.465149 
	C546.419983,703.444092 543.931335,703.671143 541.502319,704.506714 
	C540.654602,704.798279 539.594055,705.681824 539.035889,705.422668 
	C530.742432,701.571533 521.998962,704.153015 513.494995,703.572937 
	C507.854614,703.188232 502.163574,703.384705 496.500977,703.536743 
	C492.016785,703.657104 486.740143,702.525024 484.331268,700.162292 
	C479.583099,695.505005 475.470367,689.523438 475.483582,682.000000 
	C475.527161,657.166748 475.486389,632.333313 475.507660,607.500000 
	C475.514832,599.145142 481.527679,593.976440 486.000000,588.000000 
	C491.328705,588.589111 495.949829,583.956299 501.517578,585.950928 
	C502.899902,586.446106 504.499695,586.474915 506.000061,586.478210 
	C522.000000,586.513306 538.013672,586.882568 553.993225,586.311279 
	C560.367615,586.083435 566.663147,586.753296 573.001709,586.555176 
	C575.569641,586.474854 578.064453,586.316650 580.500000,585.500000 
"/>
<path fill="none" opacity="1.000000" stroke="#000000" stroke-linecap="round" stroke-linejoin="round" stroke-width="11.000000"
	d="
M581.000000,585.000000 
	C581.161133,569.303467 584.474976,553.228943 575.972534,538.515869 
	C569.705627,527.671265 560.358887,520.936279 548.000366,518.498230 
	C530.477478,515.041443 516.649048,521.471558 506.126770,535.097900 
	C501.319611,541.323181 498.550598,548.844788 498.510406,557.000061 
	C498.465210,566.166504 498.500000,575.333313 498.500000,584.500000 
"/>
<path fill="none" opacity="1.000000" stroke="#000000" stroke-linecap="round" stroke-linejoin="round" stroke-width="13.000000"
	d="
M399.000000,582.000000 
	C398.645874,579.104187 400.156555,576.743774 401.558807,574.537354 
	C404.559357,569.816284 405.617310,564.224060 408.570770,559.544678 
	C409.488251,558.091003 408.739716,556.552979 408.381287,556.092407 
	C403.299347,549.563049 402.907013,541.578857 400.768890,534.065796 
	C398.884766,527.445129 392.846008,523.840332 386.469482,521.586304 
	C384.896210,521.030151 383.876587,520.449402 382.949799,519.032837 
	C379.498352,513.757629 374.125977,510.207123 370.321960,505.133484 
	C368.544464,502.762756 364.536011,503.166931 361.516937,503.614288 
	C359.489136,503.914764 357.501160,503.979095 355.500000,503.980347 
	C314.333344,504.006439 273.166656,503.999939 232.000000,504.000122 
	C225.925995,504.000153 219.635254,502.050659 214.000000,506.000000 
"/>
<path fill="none" opacity="1.000000" stroke="#000000" stroke-linecap="round" stroke-linejoin="round" stroke-width="11.000000"
	d="
M183.000000,629.000000 
	C186.574966,616.330383 188.712479,603.339722 191.665466,590.538147 
	C193.070816,584.445862 197.086166,579.451416 203.004562,576.509155 
	C204.139359,575.945068 206.125885,575.752686 206.378143,574.961243 
	C209.071030,566.512268 217.208038,562.650146 222.039032,556.028442 
	C226.248871,550.258057 230.115677,544.417114 230.492172,536.999573 
	C230.928162,528.410339 228.009918,521.101013 221.448105,515.561462 
	C218.054245,512.696350 215.296829,509.529205 213.264175,504.873474 
	C207.077560,510.166779 198.725662,509.609436 191.990860,513.484131 
	C180.697922,519.981079 173.347153,530.153320 165.931625,540.450745 
	C152.529236,559.061707 146.596603,580.244995 143.523331,602.503235 
	C142.448334,610.289001 140.201050,618.000610 141.931976,626.014709 
	C142.219589,627.346436 140.485779,628.325684 140.066071,629.523132 
	C135.078873,643.751526 133.565186,657.940308 142.044113,671.472351 
	C147.395447,680.012878 155.550949,684.136658 165.501877,684.437927 
	C170.832596,684.599365 174.701904,681.881958 177.010406,677.004944 
	C178.285660,674.310730 179.666672,671.666687 181.000000,669.000000 
"/>
<path fill="none" opacity="1.000000" stroke="#000000" stroke-linecap="round" stroke-linejoin="round" stroke-width="11.000000"
	d="
M561.000000,585.000000 
	C561.000000,576.333313 560.736816,567.656494 561.071716,559.002747 
	C561.429016,549.768005 551.935425,538.247742 539.999268,538.457031 
	C528.621582,538.656555 519.041565,547.832214 519.005554,559.000000 
	C518.977661,567.666626 519.000000,576.333313 519.000000,585.000000 
"/>
<path fill="none" opacity="1.000000" stroke="#000000" stroke-linecap="round" stroke-linejoin="round" stroke-width="13.000000"
	d="
M246.000000,316.000000 
	C252.810867,313.485168 259.342468,310.642517 262.004517,303.001587 
	C265.410095,293.226501 259.772156,284.361633 252.984482,281.031616 
	C244.174805,276.709625 235.357285,279.730743 230.500015,288.500000 
	C224.750870,298.879456 229.273438,310.384552 240.494797,314.016083 
	C242.198761,314.567505 243.833328,315.333344 245.500000,316.000000 
"/>
<path fill="none" opacity="1.000000" stroke="#000000" stroke-linecap="round" stroke-linejoin="round" stroke-width="12.000000"
	d="
M944.500000,302.000000 
	C944.500000,295.166656 944.497437,288.333344 944.500488,281.500000 
	C944.507629,265.681427 935.328979,252.124298 918.425598,247.790100 
	C909.327515,245.457245 899.568054,246.302414 891.450989,252.940048 
	C889.090454,254.870331 886.278198,256.413788 883.000000,256.500000 
"/>
<path fill="none" opacity="1.000000" stroke="#000000" stroke-linecap="round" stroke-linejoin="round" stroke-width="12.000000"
	d="
M944.000000,566.500000 
	C944.503235,555.594666 945.862244,544.664490 942.023926,533.991394 
	C937.346802,520.986206 925.615112,512.732971 912.002075,512.410950 
	C904.076904,512.223572 896.934570,513.983337 890.526062,518.536682 
	C888.212708,520.180298 885.750854,521.127136 883.000000,521.500000 
"/>
<path fill="none" opacity="1.000000" stroke="#000000" stroke-linecap="round" stroke-linejoin="round" stroke-width="14.000000"
	d="
M778.500000,490.000000 
	C778.500000,519.500000 778.506470,549.000000 778.493469,578.500000 
	C778.491333,583.333313 779.653076,588.166687 778.500000,593.000000 
"/>
<path fill="none" opacity="1.000000" stroke="#000000" stroke-linecap="round" stroke-linejoin="round" stroke-width="14.000000"
	d="
M778.500000,229.500000 
	C778.500000,255.833328 778.439697,282.166962 778.569397,308.499664 
	C778.587463,312.168793 776.973389,315.833344 778.500000,319.500000 
"/>
<path fill="none" opacity="1.000000" stroke="#000000" stroke-linecap="round" stroke-linejoin="round" stroke-width="11.000000"
	d="
M926.500000,302.000000 
	C925.622620,295.351105 926.243958,288.662994 925.975098,282.001007 
	C925.493774,270.076691 915.862610,263.585388 906.988342,265.956390 
	C899.989990,267.826202 895.636047,273.370239 895.520081,281.500275 
	C895.422668,288.332245 895.500000,295.166656 895.500000,302.000000 
"/>
<path fill="none" opacity="1.000000" stroke="#000000" stroke-linecap="round" stroke-linejoin="round" stroke-width="11.000000"
	d="
M926.500000,566.500000 
	C925.546631,560.020142 926.255005,553.496582 925.983643,547.000671 
	C925.523987,535.996643 917.110657,528.727295 906.993652,530.971313 
	C901.679749,532.150024 895.591431,536.940796 895.510925,546.500122 
	C895.454773,553.166321 895.500000,559.833313 895.500000,566.500000 
"/>
<path fill="none" opacity="1.000000" stroke="#000000" stroke-linecap="round" stroke-linejoin="round" stroke-width="11.000000"
	d="
M409.500000,559.000000 
	C413.354309,559.360107 415.838043,562.331543 419.024445,563.951904 
	C424.195953,566.581726 429.618134,568.390320 435.487885,569.100281 
	C440.778046,569.740112 441.711884,571.281006 440.969238,576.495605 
	C439.676300,585.574829 437.674683,594.574707 431.931976,601.947021 
	C421.988007,614.712585 401.852600,618.141968 388.477936,607.026550 
	C385.946716,604.922852 383.431549,602.649719 380.000000,602.000000 
"/>
<path fill="none" opacity="1.000000" stroke="#000000" stroke-linecap="round" stroke-linejoin="round" stroke-width="12.000000"
	d="
M212.500000,505.000000 
	C210.602539,501.897461 207.889984,499.669830 205.038727,497.450256 
	C195.815826,490.270660 190.812286,480.884674 190.999344,469.000000 
	C191.004593,468.666718 191.070587,468.315033 190.989594,468.002686 
	C189.309006,461.521362 191.339523,456.770508 196.913071,452.875610 
	C200.160385,450.606293 201.075348,446.603638 201.033783,442.499664 
	C200.930847,432.334045 200.945602,422.166260 201.018127,412.000122 
	C201.070999,404.592407 197.626221,399.251862 191.484299,395.525879 
	C187.903748,393.353729 180.089645,396.342468 176.490601,400.992737 
	C173.743408,404.542297 172.392792,408.457703 172.461792,413.000580 
	C172.593399,421.665253 172.500000,430.333344 172.500000,439.000000 
	C172.500000,451.023956 175.461990,455.105133 186.997940,459.006073 
	C187.846924,459.293152 188.666656,459.666687 189.500000,460.000031 
"/>
<path fill="none" opacity="1.000000" stroke="#000000" stroke-linecap="round" stroke-linejoin="round" stroke-width="11.000000"
	d="
M417.500000,528.000000 
	C416.639404,525.801025 416.426025,524.013855 418.416229,521.920349 
	C422.122986,518.021362 423.383301,512.603821 425.880981,507.936310 
	C431.148163,498.093475 443.978821,494.802399 452.538452,501.953979 
	C457.334259,505.960876 458.970428,511.283936 459.425049,517.005981 
	C460.133240,525.920593 458.597015,534.596252 455.510284,543.003784 
	C451.869690,552.919739 447.653778,562.508118 440.500000,570.500000 
"/>
<path fill="none" opacity="1.000000" stroke="#000000" stroke-linecap="round" stroke-linejoin="round" stroke-width="14.000000"
	d="
M778.500000,385.500000 
	C778.500000,403.333344 778.514465,421.166687 778.478149,438.999969 
	C778.474365,440.833618 778.166687,442.666656 778.000000,444.500000 
"/>
<path fill="none" opacity="1.000000" stroke="#000000" stroke-linecap="round" stroke-linejoin="round" stroke-width="11.000000"
	d="
M279.500000,465.750000 
	C282.785736,465.731567 285.684265,466.805328 288.518616,468.468292 
	C303.682800,477.365662 318.689117,475.861450 333.481079,467.466644 
	C334.811066,466.711823 336.996155,466.449097 336.500000,464.000000 
"/>
<path fill="none" opacity="1.000000" stroke="#000000" stroke-linecap="round" stroke-linejoin="round" stroke-width="12.000000"
	d="
M142.500000,626.500000 
	C147.651688,628.619873 153.264603,627.856384 158.519562,628.150085 
	C165.967560,628.566406 173.468109,630.138062 181.003189,629.021545 
	C181.938583,628.882935 182.684555,629.162903 183.550613,629.943848 
	C193.047943,638.507385 195.741486,649.342529 193.913162,661.486938 
	C193.128281,666.700439 190.714539,668.352417 185.995728,668.967224 
	C182.994019,669.358276 180.376205,669.068542 178.902115,665.540894 
	C177.730392,662.736633 175.747375,660.275452 176.000000,657.000000 
"/>
<path fill="none" opacity="1.000000" stroke="#000000" stroke-linecap="round" stroke-linejoin="round" stroke-width="14.000000"
	d="
M539.500000,631.000000 
	C539.500000,643.166687 539.500000,655.333313 539.500000,667.500000 
"/>
<path fill="none" opacity="1.000000" stroke="#000000" stroke-linecap="round" stroke-linejoin="round" stroke-width="12.000000"
	d="
M245.500000,316.500000 
	C245.500000,327.000000 245.500000,337.500000 245.500000,348.000000 
"/>
<path fill="none" opacity="1.000000" stroke="#000000" stroke-linecap="round" stroke-linejoin="round" stroke-width="13.000000"
	d="
M806.750000,294.500000 
	C807.357605,296.847351 807.027405,298.708252 805.053345,300.556976 
	C799.895020,305.387939 795.035400,310.536102 789.987061,315.486816 
	C786.816284,318.596313 783.041321,320.202209 778.500000,319.500000 
"/>
<path fill="none" opacity="1.000000" stroke="#000000" stroke-linecap="round" stroke-linejoin="round" stroke-width="14.000000"
	d="
M806.500000,562.500000 
	C801.333313,567.666687 796.202332,572.869568 790.991211,577.991028 
	C784.146118,584.718323 773.683411,585.133911 767.071899,578.429077 
	C761.490540,572.768799 754.895447,568.013733 750.750000,561.000000 
"/>
<path fill="none" opacity="1.000000" stroke="#000000" stroke-linecap="round" stroke-linejoin="round" stroke-width="14.000000"
	d="
M750.750000,294.500000 
	C750.644165,297.802216 751.838013,300.322296 754.444031,302.565063 
	C758.815369,306.327209 762.911072,310.423004 766.973999,314.525726 
	C769.918945,317.499725 773.673401,318.262024 777.500000,319.000000 
"/>
<path fill="none" opacity="1.000000" stroke="#000000" stroke-linecap="round" stroke-linejoin="round" stroke-width="11.000000"
	d="
M903.500000,603.000000 
	C905.845215,603.000000 908.190491,603.000000 911.000000,603.000000 
	C911.000000,612.000244 911.000000,620.500122 911.000000,629.000000 
"/>
<path fill="none" opacity="1.000000" stroke="#000000" stroke-linecap="round" stroke-linejoin="round" stroke-width="11.000000"
	d="
M902.000000,337.500000 
	C904.833313,337.500000 907.666687,337.500000 911.000000,337.500000 
	C911.000000,345.493042 911.001465,353.496521 910.999329,361.500000 
	C910.998596,364.166351 908.477173,364.468719 907.000000,365.750000 
"/>
<path fill="none" opacity="1.000000" stroke="#000000" stroke-linecap="round" stroke-linejoin="round" stroke-width="14.000000"
	d="
M268.750000,408.500000 
	C268.833344,418.500000 268.916687,428.500000 269.000000,438.500000 
"/>
<path fill="none" opacity="1.000000" stroke="#000000" stroke-linecap="round" stroke-linejoin="round" stroke-width="11.000000"
	d="
M350.500000,410.000000 
	C350.500000,420.000000 350.500000,430.000000 350.500000,440.000000 
"/>
</svg>